# xmcd CD database file generated by Grip 3.2.0
# 
# Track frame offsets:
#       150
#       9626
#       29089
#       42310
#       54281
#       71040
#       86769
#       105825
#       121769
#       135793
#       151696
#       166690
#       183778
#       213407
#       235450
# 
# Disc length: 3322 seconds
# 
# Revision: 6
# Processed by: cddbd v1.5.1PL0 Copyright (c) Steve Scherf et al.
# Submitted via: Grip 3.2.0
# 
DISCID=b40cf80f
DTITLE=Lou Reed and John Cale - Songs For Drella
DYEAR=1990
DGENRE=Rock
TTITLE0=Small Town
TTITLE1=Open House
TTITLE2=Style It Takes
TTITLE3=Work
TTITLE4=Trouble With Classicists
TTITLE5=Starlight
TTITLE6=Faces And Names
TTITLE7=Images
TTITLE8=Slip Away (A Warning)
TTITLE9=It Wasn't Me
TTITLE10=I Believe
TTITLE11=Nobody But You
TTITLE12=A Dream
TTITLE13=Forever Changed
TTITLE14=Hello It's Me
EXTD=YEAR: 1990 ID3G: 17
EXTT0=
EXTT1=
EXTT2=
EXTT3=
EXTT4=
EXTT5=
EXTT6=
EXTT7=
EXTT8=
EXTT9=
EXTT10=
EXTT11=
EXTT12=
EXTT13=
EXTT14=
PLAYORDER=
